<mxfile host="65bd71144e">
    <diagram id="ne3qSiRUdcf6nHCQeAWs" name="UCD">
        <mxGraphModel dx="1233" dy="443" grid="1" gridSize="10" guides="1" tooltips="1" connect="1" arrows="1" fold="1" page="1" pageScale="1" pageWidth="827" pageHeight="1169" math="0" shadow="0">
            <root>
                <mxCell id="0"/>
                <mxCell id="1" parent="0"/>
                <mxCell id="3" value="Fahrer" style="shape=umlActor;verticalLabelPosition=bottom;verticalAlign=top;html=1;" vertex="1" parent="1">
                    <mxGeometry x="70" y="540" width="30" height="60" as="geometry"/>
                </mxCell>
                <mxCell id="4" value="Mitarbeiter" style="shape=umlActor;verticalLabelPosition=bottom;verticalAlign=top;html=1;" vertex="1" parent="1">
                    <mxGeometry x="100" y="50" width="30" height="60" as="geometry"/>
                </mxCell>
                <mxCell id="5" value="Kunde" style="shape=umlActor;verticalLabelPosition=bottom;verticalAlign=top;html=1;" vertex="1" parent="1">
                    <mxGeometry x="700" y="50" width="30" height="60" as="geometry"/>
                </mxCell>
                <mxCell id="10" value="Bestellanruf" style="ellipse;whiteSpace=wrap;html=1;" vertex="1" parent="1">
                    <mxGeometry x="365" y="50" width="140" height="70" as="geometry"/>
                </mxCell>
                <mxCell id="19" value="" style="endArrow=none;html=1;exitX=1;exitY=0.5;exitDx=0;exitDy=0;entryX=0.5;entryY=0.5;entryDx=0;entryDy=0;entryPerimeter=0;" edge="1" parent="1" source="10" target="5">
                    <mxGeometry width="50" height="50" relative="1" as="geometry">
                        <mxPoint x="490" y="240" as="sourcePoint"/>
                        <mxPoint x="540" y="190" as="targetPoint"/>
                    </mxGeometry>
                </mxCell>
                <mxCell id="23" value="" style="endArrow=none;html=1;exitX=0.5;exitY=0.5;exitDx=0;exitDy=0;exitPerimeter=0;entryX=0;entryY=0.5;entryDx=0;entryDy=0;" edge="1" parent="1" source="4" target="10">
                    <mxGeometry width="50" height="50" relative="1" as="geometry">
                        <mxPoint x="410" y="239.9999999999999" as="sourcePoint"/>
                        <mxPoint x="460" y="190" as="targetPoint"/>
                    </mxGeometry>
                </mxCell>
                <mxCell id="24" value="Kundendaten&lt;br&gt;erfassen" style="ellipse;whiteSpace=wrap;html=1;" vertex="1" parent="1">
                    <mxGeometry x="270" y="230.0000000000001" width="140" height="70" as="geometry"/>
                </mxCell>
                <mxCell id="25" value="" style="endArrow=none;html=1;entryX=0.5;entryY=0.5;entryDx=0;entryDy=0;entryPerimeter=0;exitX=0;exitY=0.5;exitDx=0;exitDy=0;" edge="1" parent="1" source="24" target="4">
                    <mxGeometry width="50" height="50" relative="1" as="geometry">
                        <mxPoint x="200" y="250" as="sourcePoint"/>
                        <mxPoint x="250" y="260" as="targetPoint"/>
                    </mxGeometry>
                </mxCell>
                <mxCell id="27" value="" style="endArrow=none;html=1;entryX=0.5;entryY=0.5;entryDx=0;entryDy=0;entryPerimeter=0;exitX=1;exitY=0.5;exitDx=0;exitDy=0;" edge="1" parent="1" source="24" target="5">
                    <mxGeometry width="50" height="50" relative="1" as="geometry">
                        <mxPoint x="630" y="140" as="sourcePoint"/>
                        <mxPoint x="720" y="80" as="targetPoint"/>
                    </mxGeometry>
                </mxCell>
                <mxCell id="32" value="Condition:&#10;Kunden neu" style="shape=note;size=15;spacingLeft=5;align=left;whiteSpace=wrap;" vertex="1" parent="1">
                    <mxGeometry x="110" y="160" width="110" height="40" as="geometry"/>
                </mxCell>
                <mxCell id="36" value="&amp;lt;&amp;lt;extend&amp;gt;&amp;gt;" style="html=1;verticalAlign=bottom;labelBackgroundColor=none;endArrow=open;endFill=0;dashed=1;exitX=0.5;exitY=0;exitDx=0;exitDy=0;entryX=0.5;entryY=1;entryDx=0;entryDy=0;" edge="1" parent="1" source="24" target="10">
                    <mxGeometry width="160" relative="1" as="geometry">
                        <mxPoint x="310" y="130" as="sourcePoint"/>
                        <mxPoint x="470" y="130" as="targetPoint"/>
                    </mxGeometry>
                </mxCell>
                <mxCell id="38" value="Bestellung&lt;br&gt;aufnehmen" style="ellipse;whiteSpace=wrap;html=1;" vertex="1" parent="1">
                    <mxGeometry x="370" y="330.0000000000001" width="140" height="70" as="geometry"/>
                </mxCell>
                <mxCell id="39" value="&amp;lt;&amp;lt;include&amp;gt;&amp;gt;" style="html=1;verticalAlign=bottom;labelBackgroundColor=none;endArrow=open;endFill=0;dashed=1;entryX=0.5;entryY=0;entryDx=0;entryDy=0;" edge="1" parent="1" source="10" target="38">
                    <mxGeometry width="160" relative="1" as="geometry">
                        <mxPoint x="310" y="210" as="sourcePoint"/>
                        <mxPoint x="470" y="210" as="targetPoint"/>
                    </mxGeometry>
                </mxCell>
                <mxCell id="40" value="Auslieferung" style="ellipse;whiteSpace=wrap;html=1;" vertex="1" parent="1">
                    <mxGeometry x="225" y="480.0000000000001" width="140" height="70" as="geometry"/>
                </mxCell>
                <mxCell id="41" value="" style="endArrow=none;html=1;exitX=0;exitY=0;exitDx=110;exitDy=27.5;exitPerimeter=0;" edge="1" parent="1" source="32">
                    <mxGeometry width="50" height="50" relative="1" as="geometry">
                        <mxPoint x="370" y="309.9999999999999" as="sourcePoint"/>
                        <mxPoint x="380" y="180" as="targetPoint"/>
                    </mxGeometry>
                </mxCell>
                <mxCell id="42" value="Selbstabholung" style="ellipse;whiteSpace=wrap;html=1;" vertex="1" parent="1">
                    <mxGeometry x="480" y="480.0000000000001" width="140" height="70" as="geometry"/>
                </mxCell>
                <mxCell id="43" value="&amp;lt;&amp;lt;extend&amp;gt;&amp;gt;" style="html=1;verticalAlign=bottom;labelBackgroundColor=none;endArrow=open;endFill=0;dashed=1;exitX=0.5;exitY=0;exitDx=0;exitDy=0;entryX=0.5;entryY=1;entryDx=0;entryDy=0;" edge="1" parent="1" source="40" target="38">
                    <mxGeometry width="160" relative="1" as="geometry">
                        <mxPoint x="310" y="540" as="sourcePoint"/>
                        <mxPoint x="470" y="540" as="targetPoint"/>
                    </mxGeometry>
                </mxCell>
                <mxCell id="44" value="&amp;lt;&amp;lt;extend&amp;gt;&amp;gt;" style="html=1;verticalAlign=bottom;labelBackgroundColor=none;endArrow=open;endFill=0;dashed=1;entryX=0.562;entryY=1.011;entryDx=0;entryDy=0;entryPerimeter=0;exitX=0.5;exitY=0;exitDx=0;exitDy=0;" edge="1" parent="1" source="42" target="38">
                    <mxGeometry width="160" relative="1" as="geometry">
                        <mxPoint x="310" y="540" as="sourcePoint"/>
                        <mxPoint x="470" y="540" as="targetPoint"/>
                    </mxGeometry>
                </mxCell>
                <mxCell id="45" value="SMS senden" style="ellipse;whiteSpace=wrap;html=1;" vertex="1" parent="1">
                    <mxGeometry x="225" y="690.0000000000001" width="140" height="70" as="geometry"/>
                </mxCell>
                <mxCell id="46" value="" style="endArrow=none;html=1;exitX=0.5;exitY=0.5;exitDx=0;exitDy=0;exitPerimeter=0;entryX=0;entryY=0.5;entryDx=0;entryDy=0;" edge="1" parent="1" source="3" target="40">
                    <mxGeometry width="50" height="50" relative="1" as="geometry">
                        <mxPoint x="370" y="649.9999999999999" as="sourcePoint"/>
                        <mxPoint x="420" y="600" as="targetPoint"/>
                    </mxGeometry>
                </mxCell>
                <mxCell id="47" value="" style="endArrow=none;html=1;exitX=0.5;exitY=0.5;exitDx=0;exitDy=0;exitPerimeter=0;entryX=0;entryY=0.5;entryDx=0;entryDy=0;" edge="1" parent="1" source="3" target="45">
                    <mxGeometry width="50" height="50" relative="1" as="geometry">
                        <mxPoint x="370" y="649.9999999999999" as="sourcePoint"/>
                        <mxPoint x="420" y="600" as="targetPoint"/>
                    </mxGeometry>
                </mxCell>
                <mxCell id="49" value="&amp;lt;&amp;lt;include&amp;gt;&amp;gt;" style="html=1;verticalAlign=bottom;labelBackgroundColor=none;endArrow=open;endFill=0;dashed=1;exitX=0.5;exitY=1;exitDx=0;exitDy=0;entryX=0.5;entryY=0;entryDx=0;entryDy=0;" edge="1" parent="1" source="40" target="45">
                    <mxGeometry width="160" relative="1" as="geometry">
                        <mxPoint x="320" y="630" as="sourcePoint"/>
                        <mxPoint x="470" y="710" as="targetPoint"/>
                    </mxGeometry>
                </mxCell>
            </root>
        </mxGraphModel>
    </diagram>
</mxfile>